#!OML:ASF F:\VICON\USERDATA\INSTALL\rory3\rory3.ASF
:FULLY-SPECIFIED
:DEGREES
1591
root 0.25562 15.7806 -6.59899 338.454 30.6612 -359.055
lowerback 24.935 1.14247 -3.04818
upperback 12.9698 1.22538 0.00104566
thorax 0.434802 0.631255 1.44488
lowerneck -6.71029 0.312325 -7.55839
upperneck 19.3405 0.637025 5.1405
head 6.95289 0.245232 2.99027
rclavicle 1.14301e-015 -1.2921e-014
rhumerus -63.1034 26.4287 -106.601
rradius 68.7519
rwrist -44.2206
rhand -38.5649 4.30831
rfingers 7.12502
rthumb -11.5841 -25.3515
lclavicle 1.14301e-015 -1.2921e-014
lhumerus -66.6338 -28.3235 109.072
lradius 66.8807
lwrist 43.5759
lhand -19.1287 17.919
lfingers 7.12502
lthumb 7.18088 47.7771
rfemur -56.4742 -12.9071 12.0209
rtibia 107.552
rfoot 6.71672 -16.7667
rtoes 5.29015
lfemur -33.6148 14.4019 -13.5045
ltibia 69.849
lfoot 4.26959 -6.65779
ltoes -0.47142
1592
root 0.251915 15.7851 -6.61435 338.145 30.6195 -359.189
lowerback 24.9996 1.14312 -2.84633
upperback 13.0143 1.27182 0.070679
thorax 0.451828 0.662957 1.39387
lowerneck -6.88148 0.260827 -7.64565
upperneck 19.1554 0.556038 5.32456
head 6.92699 0.218201 3.05685
rclavicle -5.09137e-014 2.80286e-014
rhumerus -63.0612 26.417 -106.719
rradius 68.7824
rwrist -43.4994
rhand -39.282 4.89621
rfingers 7.12502
rthumb -12.2755 -24.7235
lclavicle -5.09137e-014 2.80286e-014
lhumerus -66.4521 -28.2764 108.979
lradius 66.9433
lwrist 43.6402
lhand -19.4141 18.1113
lfingers 7.12502
lthumb 6.90539 47.9786
rfemur -56.7067 -13.2161 12.2465
rtibia 108.395
rfoot 6.81514 -16.9348
rtoes 5.00472
lfemur -33.4641 14.5168 -13.3031
ltibia 69.8891
lfoot 4.74188 -6.71125
ltoes -0.643229
1593
root 0.244638 15.7931 -6.63035 337.817 30.6144 -359.414
lowerback 25.1482 1.11395 -2.54438
upperback 12.9468 1.29319 0.120717
thorax 0.306229 0.689328 1.26797
lowerneck -6.81594 0.206785 -7.61353
upperneck 18.9206 0.448813 5.46073
head 6.84567 0.18148 3.0827
rclavicle 6.24184e-014 -5.43676e-014
rhumerus -63.2854 26.3404 -107.085
rradius 68.8361
rwrist -42.8084
rhand -40.3261 5.31724
rfingers 7.12502
rthumb -13.2822 -24.2395
lclavicle 6.24184e-014 -5.43676e-014
lhumerus -66.5957 -28.2918 109.033
lradius 67.0309
lwrist 43.6606
lhand -19.838 17.8073
lfingers 7.12502
lthumb 6.49623 47.6877
rfemur -56.9837 -13.5787 12.5871
rtibia 109.225
rfoot 7.12348 -17.0453
rtoes 3.8782
lfemur -33.3637 14.478 -13.0274
ltibia 69.9635
lfoot 5.29566 -6.87646
ltoes 0.220228
1594
root 0.239372 15.7937 -6.6474 337.43 30.6064 -359.671
lowerback 25.3189 1.08785 -2.17456
upperback 12.9093 1.33599 0.163644
thorax 0.184668 0.73 1.09046
lowerneck -6.63431 0.129313 -7.37442
upperneck 18.5648 0.305433 5.43133
head 6.70946 0.127385 3.01398
rclavicle 1.1035e-013 -4.94974e-014
rhumerus -63.5155 26.2902 -107.515
rradius 68.9036
rwrist -42.1434
rhand -41.1043 4.84075
rfingers 7.12502
rthumb -14.0321 -24.6656
lclavicle 1.1035e-013 -4.94974e-014
lhumerus -66.7707 -28.4422 109.145
lradius 67.1373
lwrist 43.7994
lhand -20.2697 17.4903
lfingers 7.12502
lthumb 6.0794 47.3831
rfemur -57.2412 -14.0054 12.8802
rtibia 110.065
rfoot 7.40106 -17.137
rtoes 3.48494
lfemur -33.2472 14.201 -12.7153
ltibia 70.0818
lfoot 5.84627 -6.91479
ltoes 2.17142
1595
root 0.23357 15.7909 -6.66213 336.332 30.12 -360.885
lowerback 25.6027 0.988232 -0.993707
upperback 12.9992 1.47314 0.48526
thorax 0.156946 0.847367 0.729162
lowerneck -6.588 0.0634346 -7.2693
upperneck 18.2278 0.190394 5.4885
head 6.60074 0.0850948 2.99991
rclavicle 4.75592e-014 -4.1546e-014
rhumerus -63.5751 26.3113 -107.745
rradius 68.8795
rwrist -41.6027
rhand -41.7953 4.78653
rfingers 7.12502
rthumb -14.6979 -24.6725
lclavicle 4.75592e-014 -4.1546e-014
lhumerus -66.7388 -28.5743 109.209
lradius 67.2163
lwrist 44.0113
lhand -20.5802 17.2492
lfingers 7.12502
lthumb 5.77964 47.1504
rfemur -57.1051 -13.9412 14.2852
rtibia 110.749
rfoot 7.16224 -17.7683
rtoes 4.64336
lfemur -32.9586 14.2273 -11.217
ltibia 70.301
lfoot 6.40997 -7.04278
ltoes 2.87825
1596
root 0.231786 15.7844 -6.67717 335.996 30.0721 -361.089
lowerback 25.6321 0.971926 -0.798961
upperback 13.0627 1.50195 0.628249
thorax 0.213599 0.867246 0.766302
lowerneck -6.69835 0.044678 -7.38441
upperneck 17.966 0.166226 5.61907
head 6.53733 0.0783009 3.05583
rclavicle 3.17931e-014 -3.07619e-014
rhumerus -63.5529 26.4618 -107.785
rradius 68.7979
rwrist -41.1191
rhand -42.5364 5.34194
rfingers 7.12502
rthumb -15.4119 -24.0636
lclavicle 3.17931e-014 -3.07619e-014
lhumerus -66.5146 -28.4749 109.232
lradius 67.2235
lwrist 44.0493
lhand -20.9 17.015
lfingers 7.12502
lthumb 5.47086 46.9244
rfemur -57.373 -14.3256 14.5135
rtibia 111.648
rfoot 7.23316 -17.8333
rtoes 4.92679
lfemur -32.9237 14.1449 -10.9563
ltibia 70.4533
lfoot 6.80208 -7.02707
ltoes 1.87404
